# xmcd
#
# Track frame offsets: 
#        150
#        18319
#        42131
#        53723
#        73524
#        90521
#        106233
#        129617
#        145127
#        162017
#        177232
#
# Disc length: 2623 seconds
#
# Revision: 0
# Processed by: cddbd v1.5.2PL0 Copyright (c) Steve Scherf et al.
# Submitted via: ExactAudioCopy v1.3
#
DISCID=870a3d0b
DTITLE=S.E.Willis and the Willing - Too Much Love
DYEAR=2019
DGENRE=Blues
TTITLE0=Turn Back
TTITLE1=My Happy Home
TTITLE2=I Sure Don't Know Who Does
TTITLE3=Apocalypto
TTITLE4=Crawl Off And Die
TTITLE5=Let That Be The Reason
TTITLE6=Wake Up
TTITLE7=Too Much Love
TTITLE8=Honky Tonk Romance
TTITLE9=I Study The Room
TTITLE10=Honky Tonkin' Night And Day
EXTD=
EXTT0=
EXTT1=
EXTT2=
EXTT3=
EXTT4=
EXTT5=
EXTT6=
EXTT7=
EXTT8=
EXTT9=
EXTT10=
PLAYORDER=
